<?xml version="1.0" encoding="iso-8859-1"?>
<!-- Generator: Adobe Illustrator 19.0.0, SVG Export Plug-In . SVG Version: 6.00 Build 0)  -->
<svg version="1.1" id="Layer_1" xmlns="http://www.w3.org/2000/svg" xmlns:xlink="http://www.w3.org/1999/xlink" x="0px" y="0px"
	 viewBox="0 0 512 512" style="enable-background:new 0 0 512 512;" xml:space="preserve">
<path style="fill:#B0B6BB;" d="M351.338,472.276H160.662c-1.766,0-2.648-2.648-0.883-3.531l15.89-11.476
	c16.772-12.359,25.6-34.428,20.303-55.614h120.055l0,0c-5.297,21.186,3.531,43.255,20.303,55.614l15.89,11.476
	C353.986,469.628,353.103,472.276,351.338,472.276"/>
<path style="fill:#E8EDEE;" d="M481.103,401.655H30.897C14.124,401.655,0,387.531,0,370.759V44.138
	c0-16.772,14.124-30.897,30.897-30.897h450.207c16.772,0,30.897,14.124,30.897,30.897v326.621
	C512,387.531,497.876,401.655,481.103,401.655"/>
<path style="fill:#38454F;" d="M512,322.207H0V44.138c0-16.772,14.124-30.897,30.897-30.897h450.207
	c16.772,0,30.897,14.124,30.897,30.897V322.207z"/>
<path style="fill:#E8EDEE;" d="M357.517,498.759H154.483c-7.062,0-13.241-6.179-13.241-13.241s6.179-13.241,13.241-13.241h203.034
	c7.062,0,13.241,6.179,13.241,13.241S364.579,498.759,357.517,498.759"/>
<path style="fill:#DD342E;" d="M203.034,57.379H61.793c-5.297,0-8.828-3.531-8.828-8.828s3.531-8.828,8.828-8.828h141.241
	c5.297,0,8.828,3.531,8.828,8.828S208.331,57.379,203.034,57.379"/>
<path style="fill:#42B05C;" d="M220.69,92.69H105.931c-5.297,0-8.828-3.531-8.828-8.828s3.531-8.828,8.828-8.828H220.69
	c5.297,0,8.828,3.531,8.828,8.828C229.517,89.159,225.986,92.69,220.69,92.69"/>
<path style="fill:#ECBA16;" d="M70.621,92.69h-8.828c-5.297,0-8.828-3.531-8.828-8.828s3.531-8.828,8.828-8.828h8.828
	c5.297,0,8.828,3.531,8.828,8.828C79.448,89.159,75.917,92.69,70.621,92.69"/>
<path style="fill:#7383BF;" d="M141.241,128H61.793c-5.297,0-8.828-3.531-8.828-8.828c0-5.297,3.531-8.828,8.828-8.828h79.448
	c5.297,0,8.828,3.531,8.828,8.828C150.069,124.469,146.538,128,141.241,128"/>
<path style="fill:#ECBA16;" d="M220.69,198.621H105.931c-5.297,0-8.828-3.531-8.828-8.828s3.531-8.828,8.828-8.828H220.69
	c5.297,0,8.828,3.531,8.828,8.828S225.986,198.621,220.69,198.621"/>
<path style="fill:#7383BF;" d="M70.621,198.621h-8.828c-5.297,0-8.828-3.531-8.828-8.828s3.531-8.828,8.828-8.828h8.828
	c5.297,0,8.828,3.531,8.828,8.828S75.917,198.621,70.621,198.621"/>
<path style="fill:#42B05C;" d="M211.862,233.931h-35.31c-5.297,0-8.828-3.531-8.828-8.828c0-5.297,3.531-8.828,8.828-8.828h35.31
	c5.297,0,8.828,3.531,8.828,8.828C220.69,230.4,217.159,233.931,211.862,233.931"/>
<g>
	<path style="fill:#ECBA16;" d="M211.862,269.241h-17.655c-5.297,0-8.828-3.531-8.828-8.828c0-5.297,3.531-8.828,8.828-8.828h17.655
		c5.297,0,8.828,3.531,8.828,8.828C220.69,265.71,217.159,269.241,211.862,269.241"/>
	<path style="fill:#ECBA16;" d="M211.862,128h-35.31c-5.297,0-8.828-3.531-8.828-8.828c0-5.297,3.531-8.828,8.828-8.828h35.31
		c5.297,0,8.828,3.531,8.828,8.828C220.69,124.469,217.159,128,211.862,128"/>
</g>
<path style="fill:#DD342E;" d="M141.241,233.931H61.793c-5.297,0-8.828-3.531-8.828-8.828c0-5.297,3.531-8.828,8.828-8.828h79.448
	c5.297,0,8.828,3.531,8.828,8.828C150.069,230.4,146.538,233.931,141.241,233.931"/>
<path style="fill:#7383BF;" d="M158.897,269.241H61.793c-5.297,0-8.828-3.531-8.828-8.828c0-5.297,3.531-8.828,8.828-8.828h97.103
	c5.297,0,8.828,3.531,8.828,8.828C167.724,265.71,164.193,269.241,158.897,269.241"/>
<path style="fill:#DD342E;" d="M211.862,163.31h-17.655c-5.297,0-8.828-3.531-8.828-8.828s3.531-8.828,8.828-8.828h17.655
	c5.297,0,8.828,3.531,8.828,8.828S217.159,163.31,211.862,163.31"/>
<path style="fill:#42B05C;" d="M158.897,163.31H61.793c-5.297,0-8.828-3.531-8.828-8.828s3.531-8.828,8.828-8.828h97.103
	c5.297,0,8.828,3.531,8.828,8.828S164.193,163.31,158.897,163.31"/>
<path style="fill:#DD342E;" d="M220.69,304.552H105.931c-5.297,0-8.828-3.531-8.828-8.828c0-5.297,3.531-8.828,8.828-8.828H220.69
	c5.297,0,8.828,3.531,8.828,8.828C229.517,301.021,225.986,304.552,220.69,304.552"/>
<g>
	<path style="fill:#42B05C;" d="M70.621,304.552h-8.828c-5.297,0-8.828-3.531-8.828-8.828c0-5.297,3.531-8.828,8.828-8.828h8.828
		c5.297,0,8.828,3.531,8.828,8.828C79.448,301.021,75.917,304.552,70.621,304.552"/>
	<path style="fill:#42B05C;" d="M361.931,295.724h44.138v-70.621h-44.138V295.724z"/>
</g>
<path style="fill:#DD342E;" d="M450.207,295.724h-44.138v-96.221c0-5.297,4.414-9.71,9.71-9.71h25.6c5.297,0,9.71,4.414,9.71,9.71
	L450.207,295.724L450.207,295.724z"/>
<g>
	<path style="fill:#ECBA16;" d="M361.931,295.724h-44.138V146.538c0-5.297,4.414-9.71,9.71-9.71h25.6c5.297,0,9.71,4.414,9.71,9.71
		L361.931,295.724L361.931,295.724z"/>
	<path style="fill:#ECBA16;" d="M450.207,57.379h-44.138c-5.297,0-8.828-3.531-8.828-8.828s3.531-8.828,8.828-8.828h44.138
		c5.297,0,8.828,3.531,8.828,8.828S455.503,57.379,450.207,57.379"/>
</g>
<path style="fill:#DD342E;" d="M370.759,57.379h-8.828c-5.297,0-8.828-3.531-8.828-8.828s3.531-8.828,8.828-8.828h8.828
	c5.297,0,8.828,3.531,8.828,8.828S376.055,57.379,370.759,57.379"/>
<path style="fill:#7383BF;" d="M397.241,92.69h-35.31c-5.297,0-8.828-3.531-8.828-8.828s3.531-8.828,8.828-8.828h35.31
	c5.297,0,8.828,3.531,8.828,8.828C406.069,89.159,402.538,92.69,397.241,92.69"/>
<path style="fill:#42B05C;" d="M450.207,92.69h-17.655c-5.297,0-8.828-3.531-8.828-8.828s3.531-8.828,8.828-8.828h17.655
	c5.297,0,8.828,3.531,8.828,8.828C459.034,89.159,455.503,92.69,450.207,92.69"/>
<g>
</g>
<g>
</g>
<g>
</g>
<g>
</g>
<g>
</g>
<g>
</g>
<g>
</g>
<g>
</g>
<g>
</g>
<g>
</g>
<g>
</g>
<g>
</g>
<g>
</g>
<g>
</g>
<g>
</g>
</svg>
